<?xml version="1.0" encoding="UTF-8"?>
<!DOCTYPE svg PUBLIC "-//W3C//DTD SVG 1.1//EN" "http://www.w3.org/Graphics/SVG/1.1/DTD/svg11.dtd">
<svg xmlns="http://www.w3.org/2000/svg" version="1.1" width="512px" height="512px" style="shape-rendering:geometricPrecision; text-rendering:geometricPrecision; image-rendering:optimizeQuality; fill-rule:evenodd; clip-rule:evenodd" xmlns:xlink="http://www.w3.org/1999/xlink">
<g><path style="opacity:0.97" fill="#000000" d="M 233.5,-0.5 C 248.167,-0.5 262.833,-0.5 277.5,-0.5C 377.77,12.0422 449.27,64.0422 492,155.5C 502.136,180.379 508.636,206.046 511.5,232.5C 511.5,247.833 511.5,263.167 511.5,278.5C 499.071,376.233 448.738,446.733 360.5,490C 334.415,501.103 307.415,508.269 279.5,511.5C 263.5,511.5 247.5,511.5 231.5,511.5C 135.191,498.786 65.3576,449.119 22,362.5C 10.0981,335.551 2.59809,307.551 -0.5,278.5C -0.5,263.167 -0.5,247.833 -0.5,232.5C 9.30468,148.244 49.638,83.0769 120.5,37C 155.418,15.9716 193.085,3.47159 233.5,-0.5 Z M 235.5,38.5 C 328.149,34.5628 398.315,71.8961 446,150.5C 474.176,203.751 480.176,259.418 464,317.5C 439.336,392.164 389.503,441.33 314.5,465C 241.458,483.46 175.458,469.46 116.5,423C 59.6832,373.165 33.8498,310.331 39,234.5C 48.7953,159.681 85.962,103.181 150.5,65C 177.264,50.7326 205.597,41.8993 235.5,38.5 Z"/></g>
<g><path style="opacity:0.959" fill="#000000" d="M 378.5,189.5 C 398.456,187.952 406.623,196.952 403,216.5C 402,218.167 401,219.833 400,221.5C 355.833,265.667 311.667,309.833 267.5,354C 259.701,359.495 251.701,359.828 243.5,355C 199,310.5 154.5,266 110,221.5C 103.341,207.809 106.841,197.642 120.5,191C 126.064,189.99 131.398,190.657 136.5,193C 176.306,231.805 215.806,270.972 255,310.5C 294.167,271.333 333.333,232.167 372.5,193C 374.727,192.059 376.727,190.892 378.5,189.5 Z"/></g>
</svg>
