<?xml version="1.0" encoding="UTF-8"?>
<!DOCTYPE svg PUBLIC "-//W3C//DTD SVG 1.1//EN" "http://www.w3.org/Graphics/SVG/1.1/DTD/svg11.dtd">
<svg xmlns="http://www.w3.org/2000/svg" version="1.1" width="256px" height="256px" style="shape-rendering:geometricPrecision; text-rendering:geometricPrecision; image-rendering:optimizeQuality; fill-rule:evenodd; clip-rule:evenodd" xmlns:xlink="http://www.w3.org/1999/xlink">
<g><path style="opacity:0.978" fill="#465963" d="M 210.5,47.5 C 212.39,47.2965 213.89,47.9632 215,49.5C 215.667,56.1667 215.667,62.8333 215,69.5C 214.5,70 214,70.5 213.5,71C 209.833,71.3333 206.167,71.6667 202.5,72C 208.043,80.2502 213.21,88.7502 218,97.5C 219,98.8333 220,98.8333 221,97.5C 225.79,88.7502 230.957,80.2502 236.5,72C 232.833,71.6667 229.167,71.3333 225.5,71C 225,70.5 224.5,70 224,69.5C 223.667,60.1667 223.333,50.8333 223,41.5C 219.834,27.3147 211.001,19.148 196.5,17C 191.156,16.5293 185.822,16.0293 180.5,15.5C 168.495,15.6665 156.495,15.4999 144.5,15C 143.167,12.6667 143.167,10.3333 144.5,8C 160.833,7.33333 177.167,7.33333 193.5,8C 211.795,9.32292 223.962,18.4896 230,35.5C 231.386,44.7662 231.886,54.0995 231.5,63.5C 236.511,63.3341 241.511,63.5007 246.5,64C 247.591,66.0639 247.758,68.2305 247,70.5C 239.333,83.5 231.667,96.5 224,109.5C 221,112.167 218,112.167 215,109.5C 207.333,96.5 199.667,83.5 192,70.5C 191.242,68.2305 191.409,66.0639 192.5,64C 197.489,63.5007 202.489,63.3341 207.5,63.5C 207.334,58.4889 207.501,53.4889 208,48.5C 208.671,47.7476 209.504,47.4142 210.5,47.5 Z"/></g>
<g><path style="opacity:0.99" fill="#fc897f" d="M 180.5,15.5 C 185.822,16.0293 191.156,16.5293 196.5,17C 211.001,19.148 219.834,27.3147 223,41.5C 223.333,50.8333 223.667,60.1667 224,69.5C 224.5,70 225,70.5 225.5,71C 229.167,71.3333 232.833,71.6667 236.5,72C 230.957,80.2502 225.79,88.7502 221,97.5C 220,98.8333 219,98.8333 218,97.5C 213.21,88.7502 208.043,80.2502 202.5,72C 206.167,71.6667 209.833,71.3333 213.5,71C 214,70.5 214.5,70 215,69.5C 215.667,62.8333 215.667,56.1667 215,49.5C 213.89,47.9632 212.39,47.2965 210.5,47.5C 210.167,44.8333 209.833,42.1667 209.5,39.5C 212.926,33.8999 211.259,31.2333 204.5,31.5C 198.153,23.6617 190.153,18.3283 180.5,15.5 Z"/></g>
<g><path style="opacity:0.998" fill="#445a64" d="M 171.5,111.5 C 169.983,111.489 168.816,110.823 168,109.5C 167.5,86.169 167.333,62.8357 167.5,39.5C 116.833,39.5 66.1667,39.5 15.5,39.5C 15.5,68.8333 15.5,98.1667 15.5,127.5C 33.5031,127.333 51.5031,127.5 69.5,128C 70.8228,128.816 71.4894,129.983 71.5,131.5C 71.67,132.822 71.3366,133.989 70.5,135C 49.5937,135.826 28.7603,135.66 8,134.5C 7.17096,100.262 7.33763,66.0952 8.5,32C 63.8333,31.3333 119.167,31.3333 174.5,32C 175.661,58.0945 175.828,84.2611 175,110.5C 173.989,111.337 172.822,111.67 171.5,111.5 Z"/></g>
<g><path style="opacity:0.984" fill="#495b64" d="M 204.5,31.5 C 211.259,31.2333 212.926,33.8999 209.5,39.5C 203.612,39.7422 201.945,37.0755 204.5,31.5 Z"/></g>
<g><path style="opacity:1" fill="#1bd1a4" d="M 171.5,111.5 C 171.5,114.167 171.5,116.833 171.5,119.5C 159.5,119.5 147.5,119.5 135.5,119.5C 135.598,109.808 139.932,102.641 148.5,98C 151.923,96.0961 155.59,95.2628 159.5,95.5C 159.5,87.5 159.5,79.5 159.5,71.5C 150.141,70.8996 142.975,66.5663 138,58.5C 136.096,55.0769 135.263,51.4102 135.5,47.5C 122.163,47.3334 108.829,47.5001 95.5,48C 109.008,50.505 117.841,58.3384 122,71.5C 126.143,89.1299 121.31,103.63 107.5,115C 103.568,117.028 99.5676,118.528 95.5,119.5C 91.8333,119.5 88.1667,119.5 84.5,119.5C 64.2061,109.909 56.3728,93.9094 61,71.5C 64.8333,59.6667 72.6667,51.8333 84.5,48C 72.1712,47.5001 59.8378,47.3335 47.5,47.5C 47.1464,56.0425 43.4797,62.8758 36.5,68C 32.4006,70.0896 28.0672,71.2562 23.5,71.5C 23.5,79.5 23.5,87.5 23.5,95.5C 33.214,95.6075 40.3806,99.9408 45,108.5C 46.9039,111.923 47.7372,115.59 47.5,119.5C 58.8333,119.5 70.1667,119.5 81.5,119.5C 79.6571,123.187 78.9905,127.187 79.5,131.5C 76.8333,131.5 74.1667,131.5 71.5,131.5C 71.4894,129.983 70.8228,128.816 69.5,128C 51.5031,127.5 33.5031,127.333 15.5,127.5C 15.5,98.1667 15.5,68.8333 15.5,39.5C 66.1667,39.5 116.833,39.5 167.5,39.5C 167.333,62.8357 167.5,86.169 168,109.5C 168.816,110.823 169.983,111.489 171.5,111.5 Z"/></g>
<g><path style="opacity:1" fill="#64efcc" d="M 84.5,119.5 C 83.5,119.5 82.5,119.5 81.5,119.5C 70.1667,119.5 58.8333,119.5 47.5,119.5C 47.7372,115.59 46.9039,111.923 45,108.5C 40.3806,99.9408 33.214,95.6075 23.5,95.5C 23.5,87.5 23.5,79.5 23.5,71.5C 28.0672,71.2562 32.4006,70.0896 36.5,68C 43.4797,62.8758 47.1464,56.0425 47.5,47.5C 59.8378,47.3335 72.1712,47.5001 84.5,48C 72.6667,51.8333 64.8333,59.6667 61,71.5C 56.3728,93.9094 64.2061,109.909 84.5,119.5 Z"/></g>
<g><path style="opacity:1" fill="#64efcc" d="M 135.5,119.5 C 122.167,119.5 108.833,119.5 95.5,119.5C 99.5676,118.528 103.568,117.028 107.5,115C 121.31,103.63 126.143,89.1299 122,71.5C 117.841,58.3384 109.008,50.505 95.5,48C 108.829,47.5001 122.163,47.3334 135.5,47.5C 135.263,51.4102 136.096,55.0769 138,58.5C 142.975,66.5663 150.141,70.8996 159.5,71.5C 159.5,79.5 159.5,87.5 159.5,95.5C 155.59,95.2628 151.923,96.0961 148.5,98C 139.932,102.641 135.598,109.808 135.5,119.5 Z"/></g>
<g><path style="opacity:1" fill="#445c65" d="M 88.5,52.5 C 90.5273,52.3379 92.5273,52.5045 94.5,53C 94.3783,58.1472 96.7117,61.4806 101.5,63C 103.396,64.8083 103.896,66.975 103,69.5C 102.107,70.0814 101.107,70.4148 100,70.5C 96.1495,68.4356 92.1495,68.1022 88,69.5C 87.3333,71.1667 87.3333,72.8333 88,74.5C 92.7235,77.1125 97.5569,79.6125 102.5,82C 108.221,90.1832 107.554,97.8498 100.5,105C 98.9751,106.009 97.3084,106.509 95.5,106.5C 96.8369,112.917 94.5036,115.25 88.5,113.5C 87.9588,111.465 87.2922,109.465 86.5,107.5C 81.6511,105.815 78.3178,102.649 76.5,98C 76.3333,95.5 77.5,94.3333 80,94.5C 83.2238,97.0363 86.8905,98.703 91,99.5C 97.2476,99.0236 99.581,95.6903 98,89.5C 93.8647,86.4454 89.3647,83.9454 84.5,82C 79.728,78.3007 78.228,73.4674 80,67.5C 81.6667,64.5 84,62.1667 87,60.5C 87.2724,57.7462 87.7724,55.0795 88.5,52.5 Z"/></g>
<g><path style="opacity:0.999" fill="#445a64" d="M 81.5,119.5 C 82.5,119.5 83.5,119.5 84.5,119.5C 88.1667,119.5 91.8333,119.5 95.5,119.5C 108.833,119.5 122.167,119.5 135.5,119.5C 147.5,119.5 159.5,119.5 171.5,119.5C 196.741,119.172 221.908,119.505 247,120.5C 247.829,154.738 247.662,188.905 246.5,223C 191.167,223.667 135.833,223.667 80.5,223C 79.5045,192.574 79.1711,162.074 79.5,131.5C 78.9905,127.187 79.6571,123.187 81.5,119.5 Z"/></g>
<g><path style="opacity:1" fill="#feafa8" d="M 111.5,127.5 C 111.5,156.833 111.5,186.167 111.5,215.5C 103.5,215.5 95.5,215.5 87.5,215.5C 87.5,186.167 87.5,156.833 87.5,127.5C 95.5,127.5 103.5,127.5 111.5,127.5 Z"/></g>
<g><path style="opacity:1" fill="#fe897f" d="M 111.5,127.5 C 146.167,127.5 180.833,127.5 215.5,127.5C 215.5,156.833 215.5,186.167 215.5,215.5C 180.833,215.5 146.167,215.5 111.5,215.5C 111.5,186.167 111.5,156.833 111.5,127.5 Z"/></g>
<g><path style="opacity:1" fill="#feafa8" d="M 215.5,127.5 C 223.5,127.5 231.5,127.5 239.5,127.5C 239.5,156.833 239.5,186.167 239.5,215.5C 231.5,215.5 223.5,215.5 215.5,215.5C 215.5,186.167 215.5,156.833 215.5,127.5 Z"/></g>
<g><path style="opacity:1" fill="#495b64" d="M 157.5,139.5 C 166.111,138.542 174.278,139.875 182,143.5C 183.205,146.868 182.205,149.202 179,150.5C 165.554,144.272 154.387,146.939 145.5,158.5C 153.813,159.332 162.147,159.832 170.5,160C 171.833,162.333 171.833,164.667 170.5,167C 160.839,167.5 151.172,167.666 141.5,167.5C 141.5,170.167 141.5,172.833 141.5,175.5C 151.416,175.181 161.25,175.514 171,176.5C 171.758,178.769 171.591,180.936 170.5,183C 162.167,183.333 153.833,183.667 145.5,184C 151.52,192.842 159.854,196.509 170.5,195C 175.09,193.703 179.423,191.87 183.5,189.5C 186.975,190.143 188.141,192.143 187,195.5C 166.392,209.209 149.559,205.542 136.5,184.5C 134.577,183.692 132.577,183.192 130.5,183C 127.332,178.839 128.332,176.339 133.5,175.5C 133.5,172.833 133.5,170.167 133.5,167.5C 129.513,167.348 128.013,165.348 129,161.5C 131.243,160.029 133.743,159.029 136.5,158.5C 140.867,149.166 147.867,142.833 157.5,139.5 Z"/></g>
<g><path style="opacity:0.98" fill="#465963" d="M 44.5,207.5 C 42.6096,207.703 41.1096,207.037 40,205.5C 39.3333,198.833 39.3333,192.167 40,185.5C 40.5,185 41,184.5 41.5,184C 45.1667,183.667 48.8333,183.333 52.5,183C 46.9566,174.75 41.7899,166.25 37,157.5C 36,156.167 35,156.167 34,157.5C 29.2101,166.25 24.0434,174.75 18.5,183C 22.1667,183.333 25.8333,183.667 29.5,184C 30,184.5 30.5,185 31,185.5C 31.3333,194.5 31.6667,203.5 32,212.5C 35.6145,228.085 45.4478,236.918 61.5,239C 65.8206,239.499 70.1539,239.666 74.5,239.5C 86.5046,239.333 98.5046,239.5 110.5,240C 111.833,242.333 111.833,244.667 110.5,247C 94.1667,247.667 77.8333,247.667 61.5,247C 47.9522,245.98 37.1188,240.146 29,229.5C 27.2752,226.326 25.9419,222.993 25,219.5C 23.6137,210.234 23.1137,200.9 23.5,191.5C 18.4889,191.666 13.4889,191.499 8.5,191C 7.40857,188.936 7.2419,186.769 8,184.5C 15.6667,171.5 23.3333,158.5 31,145.5C 34,142.833 37,142.833 40,145.5C 47.6667,158.5 55.3333,171.5 63,184.5C 63.7581,186.769 63.5914,188.936 62.5,191C 57.5111,191.499 52.5111,191.666 47.5,191.5C 47.6659,196.511 47.4993,201.511 47,206.5C 46.3292,207.252 45.4959,207.586 44.5,207.5 Z"/></g>
<g><path style="opacity:0.992" fill="#fc897f" d="M 44.5,207.5 C 44.5751,210.206 44.9084,212.873 45.5,215.5C 42.0744,221.1 43.7411,223.767 50.5,223.5C 56.8471,231.338 64.8471,236.672 74.5,239.5C 70.1539,239.666 65.8206,239.499 61.5,239C 45.4478,236.918 35.6145,228.085 32,212.5C 31.6667,203.5 31.3333,194.5 31,185.5C 30.5,185 30,184.5 29.5,184C 25.8333,183.667 22.1667,183.333 18.5,183C 24.0434,174.75 29.2101,166.25 34,157.5C 35,156.167 36,156.167 37,157.5C 41.7899,166.25 46.9566,174.75 52.5,183C 48.8333,183.333 45.1667,183.667 41.5,184C 41,184.5 40.5,185 40,185.5C 39.3333,192.167 39.3333,198.833 40,205.5C 41.1096,207.037 42.6096,207.703 44.5,207.5 Z"/></g>
<g><path style="opacity:0.932" fill="#495b64" d="M 45.5,215.5 C 51.388,215.258 53.0547,217.924 50.5,223.5C 43.7411,223.767 42.0744,221.1 45.5,215.5 Z"/></g>
</svg>
